<svg xmlns="http://www.w3.org/2000/svg" viewBox="0 0 1050.79 716.51"><defs><style>.cls-1{fill:#1f3060;}.cls-2{fill:#1eb7e7;}.cls-3{fill:#1c63ad;}.cls-4{fill:#0a83c5;}.cls-5{fill:#1f3160;}.cls-6{fill:#20549d;}.cls-7{fill:#058dcf;}.cls-8{fill:#182546;}.cls-9{fill:#172545;}.cls-10{fill:#078dcf;}.cls-11{fill:#182646;}.cls-12{fill:#21559e;}.cls-13{fill:#20b7e7;}.cls-14{fill:#89a4cb;}.cls-15{fill:#85a2c9;}.cls-16{fill:#edeff2;}</style></defs><g id="Layer_2" data-name="Layer 2"><g id="Layer_1-2" data-name="Layer 1"><path class="cls-1" d="M690.17,226.61c0,30.39-.08,60.78.09,91.17,0,4.73-1.77,7-6.09,8.44a279.57,279.57,0,0,0-34.07,14.06,318.51,318.51,0,0,0-37.37,20.91,359.75,359.75,0,0,0-31.64,22.87c-7.64,6.3-15.53,12.38-22.68,19.19-9.69,9.22-18.65,19.2-27.81,29-3.51,3.75-3.74,3.62-7.18.07-10.32-10.64-20.21-21.72-31.23-31.69a349,349,0,0,0-27.44-22.8c-8.94-6.55-18-12.93-27.5-18.72-8-4.86-16.1-9.45-24.24-14a148.18,148.18,0,0,0-18.23-8.77c-8.89-3.47-17.41-7.87-26.64-10.44-3.91-1.09-4.5-3.91-4.49-7.4q.08-41.82,0-83.64,0-50,0-100c0-5.3.23-5.46,5.43-5,8.19.65,16.46.76,24.58,1.94,22.54,3.29,45.29,2.73,67.91,4.37,38.72,2.8,77.48,2.11,116.18.89,24.34-.77,48.77-1.61,73-4.09,11.34-1.16,22.69-2.19,34-3.18,4.95-.44,5.21-.16,5.21,4.85q0,46,0,92ZM419.08,249c-.16,6.93.73,8.25,6.49,10.71a19.8,19.8,0,0,1,2.54,1.42c8.26,4.87,16.47,9.84,24.78,14.61,9.07,5.21,18.26,10.19,27.36,15.35,3.34,1.9,5,1.2,5.71-2.64,1.31-7.15-.46-11.33-6.7-14.81-12.72-7.08-25.51-14-38.26-21-1.15-.63-2.87-.8-2.59-2.74.24-1.71,1.78-1.94,3-2.53,3.61-1.75,7.27-3.42,10.8-5.34,8.88-4.85,17.46-10.34,26.63-14.54,5.82-2.67,8-6.27,7.48-12.23-.19-2,.64-4.46-1.62-5.66s-4.7.16-6.68,1.27c-11.34,6.38-22.59,12.92-33.89,19.38-6.9,4-13.69,8.13-20.79,11.68C419.71,243.7,418.6,246.1,419.08,249Zm149.08,34.56c0,1.86-.06,2.84,0,3.8.37,4.48,2.14,5.21,6,3.11,3-1.63,5.93-3.52,9-4.94,6.39-3,12.24-6.91,18.39-10.27,9.61-5.25,18.93-11.07,28.58-16.31,3.37-1.83,5-4.62,4.78-8.79-.16-3.71-.89-6.37-4.55-8-3.24-1.45-6.27-3.4-9.36-5.16q-12.68-7.23-25.33-14.5c-6.2-3.55-12.44-7-18.58-10.7-2.28-1.36-4.53-3.22-7.22-2s-1.59,4.12-1.84,6.36a14.92,14.92,0,0,0,0,2.5c.16,2.87.85,5.54,3.58,7,12.8,7,25.67,13.83,38.41,20.91,1.89,1.05,5.52.65,5.29,3.78-.2,2.65-3.5,3.45-5.49,4.38-12,5.61-23,13-35,18.65C570.51,275.38,566.82,278.6,568.16,283.54Zm-56,18.88c2.12-.85,5.69,1.85,7.08-2.5,2.27-7.09,4.85-14.09,7-21.21q5.85-19.38,12.33-38.54c3.79-11.29,7-22.78,10.38-34.19,1.36-4.59,1-5-3.85-5-2.9.05-6.07-.95-8.61.56-2.1,1.25-1.62,4.26-2.36,6.45-3.72,11-7.68,21.85-10.86,33-1.75,6.1-3.94,12-5.66,18.15-3.41,12.09-7.85,23.89-11.5,35.93C503.87,302.33,504.18,302.42,512.11,302.42Zm-69.91-150v.09c14.21,0,28.42,0,42.63-.07,1.71,0,4.79,1.09,4.87-1.45.07-2.12-3.09-1.46-4.85-1.93a5.19,5.19,0,0,0-1.25,0c-13.5-.53-27-.94-40.49-1.63-10.7-.55-21.44-1-32.06-2.34-9-1.14-17.94-2.12-27-2.6-3.32-.17-7.07,3.16-7.14,6.33-.16,8.07-.05,16.15-.06,24.23,0,1.42.35,2.53,2,2.5a2.21,2.21,0,0,0,2.31-2.43c.08-2.78,0-5.57.12-8.35.05-1.49-.31-3.29,1-4.32,5.46-4.22,11-8.11,18.46-8C414.62,152.49,428.41,152.4,442.2,152.4Z"/><path class="cls-2" d="M256.31,256.41c-.55-9.94,1.89-19.63,2.37-29.49.68-13.9,1-27.86,2.6-41.67,2.26-19.52,2-39.2,4.29-58.66,2.2-18.83,2-37.8,4.16-56.59s2.42-37.75,3.95-56.6A34.46,34.46,0,0,1,276,4.67C277.65.09,282-.06,285.78,0c11.28.2,22.61.52,33.73,2.31,12.79,2.07,25.57,4.59,38.08,7.92,13.28,3.53,26.37,7.91,39.32,12.54A303.82,303.82,0,0,1,426.14,35c11,5.28,21.79,11,32.36,17.1a378.53,378.53,0,0,1,38.16,25.1c9.5,7.12,19,14.28,27.57,22.63a7.29,7.29,0,0,0,2.23,1q-1.22,9-2.42,18c-15,0-30.07.21-45.1,0-15.45-.24-30.9-.89-46.34-1.42-8.21-.29-16.52,0-24.61-1.21-16-2.33-32.1-2.89-48.18-3.81-9.72-.55-12.33,2-13.5,11.65a72.84,72.84,0,0,0-.57,8.73q-.06,42.61,0,85.23c0,1.65.32,3.34-.41,4.94-9-1.07-17.56,1.16-26.19,2.89a125,125,0,0,0-27,9.18,138.63,138.63,0,0,0-25.2,14.53C263.54,252,260.77,255.61,256.31,256.41Z"/><path class="cls-3" d="M524,118.87q1.22-9,2.42-18C537.4,92,548.24,83,559.92,75.05c10.74-7.34,21.56-14.46,32.88-20.9,10.81-6.14,21.76-11.9,33-17.17,9.7-4.54,19.5-8.69,29.49-12.53,7.92-3.05,15.85-5.93,24-8.43,10.25-3.15,20.54-6,31-8.4,7.89-1.83,15.94-2.36,23.71-4.19C745.38.73,756.88,1,768.36.35c7.2-.4,9.22,1.19,10.3,8.4,2.35,15.7,3.16,31.55,4,47.39,1.1,21.83,3.45,43.57,4.71,65.4,1.23,21.25,3.49,42.44,4.35,63.72-.24.33-.47.67-.71,1l.09-.07a4.45,4.45,0,0,0-3.14.72A204,204,0,0,1,757.56,202c-7.85,3.13-16.09,4.71-24.19,6.35s-16.79,1.49-25.25,1.12c-.12-9.59-.29-19.19-.35-28.79-.11-17.4-.11-34.8-.26-52.2,0-4.37-.06-8.57-3.35-12.45-2.46-2.89-5.21-3.48-8.31-3.69-9.76-.68-19.48.55-29.18,1.25-30.67,2.2-61.33,4.49-92.1,5C557.72,118.85,540.89,119.09,524,118.87Z"/><path class="cls-4" d="M502.76,486.37c-8.5-4.45-16.95-9-25.53-13.32-11.46-5.75-23.38-10.49-35.26-15.28-4.59-1.85-9.36-3.34-14.09-4.8-7.13-2.19-14.28-4.41-21.46-6.46-9.75-2.78-19.53-5.31-29.42-7.42-19.71-4.21-39.61-7-59.65-9.38-41.84-5-83.68-4.62-125.61-2.65-4.32.2-8.63.53-13,.58-5.45.08-8.59-2.68-8.26-8.1.79-13,1.65-26.06,3.88-39,1.65-9.57,1.74-19.41,3-29.07,3.19-24.82,5.63-49.72,8.67-74.55,1.49-12.16,1.94-24.43,3.93-36.49,2.21-13.35,2.29-26.91,4.48-40.21,2-12,2.3-24.07,3.84-36.06.6-4.67,1.51-9.31,2.28-14,8.07.63,16.16,1.12,24.21,2,3.23.34,6.63.35,9.59,2.11,0,14.52-3,28.78-3.74,43.24-1.18,22.66-3.6,45.24-5.87,67.8-1.93,19.23-2.52,38.57-5.26,57.75-1.77,12.38-1.89,25-2.88,37.49-.28,3.59-1,7.15-1.53,10.72-.45,2.87,1,3.9,3.59,3.64,26.27-2.7,52.34.58,78.34,3.35,15.14,1.61,30.17,4.94,45,8.4a419.27,419.27,0,0,1,40.73,11.62c12.63,4.33,25.2,8.91,37.41,14.5,7.42,3.39,14.91,6.71,22.27,10.24,6.7,3.22,13.44,6.42,19.68,10.58,2.95,2,6.31,3.3,9.4,5.11,10.68,6.26,21.14,12.81,30.84,20.56,4.16,3.32,8.57,6.33,12.55,9.89a6.81,6.81,0,0,1-1.68,3.23A103.88,103.88,0,0,0,502.76,486.37Z"/><path class="cls-5" d="M502.76,486.37a103.88,103.88,0,0,1,10.52-14,6.81,6.81,0,0,0,1.68-3.23c3.58.44,6.4,2.87,10.17,3.29,5.85.65,10.45-1.8,14.51-5,9.2-7.16,18.64-13.92,28.29-20.47,11.93-8.11,24.5-14.93,37.33-21.47,8.07-4.12,16.35-7.71,24.45-11.7,11.89-5.87,24.66-9.48,36.83-14.66,4.64-2,9.78-3,14.68-4.41,14.79-4.25,29.68-8.12,44.83-11a573.93,573.93,0,0,1,67.37-8.63c11.27-.83,22.48-1.43,33.76-1.16a31.66,31.66,0,0,1,4.57.38c6.33,1.05,6.42,1,6-5.19-1.57-26.25-5.15-52.34-6.84-78.59-.38-5.75-1.75-11.49-1.81-17.33,4.5-.8,6.76-4.88,10.32-7.11,7.84-4.89,15.31-10.5,25.3-9.72.68,6.36,1,12.79,2.1,19.07,3,17,3.36,34.28,6.26,51.28,1.38,8.08,1.09,16.45,2.52,24.52,2.31,13,2.38,26.33,4.55,39.33,1.4,8.4,2.11,16.81,2.83,25.24.85,10-1,11.87-11.14,11.58-15.46-.45-30.91-1.35-46.38-1.76a646.68,646.68,0,0,0-82.7,2.69c-18.37,1.86-36.67,4.86-54.84,8.25a491,491,0,0,0-50,12.48c-11.86,3.54-23.61,7.59-35.09,12.19-12.52,5-24.93,10.42-36.91,16.59-9.84,5.07-19.38,10.85-27.74,18.35-5.73,5.15-16.57,5.24-23,.18C511.05,493.07,506.36,490.39,502.76,486.37Z"/><path class="cls-6" d="M708.12,209.51c8.46.37,17.07.53,25.25-1.12s16.34-3.22,24.19-6.35a204,204,0,0,0,30.36-15.12,4.45,4.45,0,0,1,3.14-.72c2.27,9.36,2.81,18.91,3.25,28.47,1.37,30.19,4.74,60.24,6.25,90.43.48,9.69,1.85,19.38,2.36,29.12.39,7.6-2.48,11.55-10.18,12.22a358.31,358.31,0,0,0-40.39,6.21c-14.08,2.87-28.15,5.9-41.92,10.23-6.18,1.95-12.55,3.43-18.65,5.67-10.1,3.7-20.41,6.72-30.29,11.11-5,2.21-10.15,4.26-15.29,6.23-6.54,2.52-12.76,5.88-19,9.08-7.49,3.83-15,7.73-22.28,11.88-8.12,4.6-16.46,8.83-24,14.52A135.29,135.29,0,0,1,567,430.26c-7.16,4.17-13.23,9.76-19.75,14.76-4.34,3.34-8.43,7-12.7,10.42a10.05,10.05,0,0,1-2.86,1c.62-3.54,3.41-5.22,5.22-7.1,10.31-10.67,20.14-21.8,31-32A304.21,304.21,0,0,1,622.54,376c7.42-4.46,14.85-8.86,22.49-12.93,1.68.46,2.42-.55,2.93-1.9l1.26-.62a1.66,1.66,0,0,0,2.19-.7l2-1c1.65.37,2.4-.62,2.92-1.94l1.27-.6a1.6,1.6,0,0,0,2.18-.66l2-1c1.74.44,2.47-.55,2.87-2,9.55-3.93,19.08-7.9,28.64-11.79,2.31-.93,4.74-1.56,7.07-2.46,4.73-1.83,7.84-4.86,7.8-10.38-.09-13.08-.09-26.16-.12-39.24q-.09-38.62-.15-77.25A18.09,18.09,0,0,1,708.12,209.51Z"/><path class="cls-7" d="M256.31,256.41c4.46-.8,7.23-4.42,10.55-6.87A138.63,138.63,0,0,1,292.06,235a125,125,0,0,1,27-9.18c8.63-1.73,17.24-4,26.19-2.89.89,11.44.31,22.89.32,34.33-.91.72-.74,1.74-.74,2.69V297.1c0,.95-.17,2,.76,2.68-.05,6.15.55,12.32-.33,18.46-2.15,4.59-2.1,9.07.65,13.43,1.35,4,4.17,6.29,8.15,7.65,8.52,2.9,16.94,6.2,25.22,9.64A246.43,246.43,0,0,1,405,361.08c13,7.23,25.84,14.64,38.14,23a391.6,391.6,0,0,1,44.72,35.75c10.05,9.28,19.86,19,28.08,30.11,1.23,1.65,3.93,2.28,3.66,5.73-4.6-3.4-8.9-6.43-13-9.67-6.47-5.09-12.91-10.21-19.62-15-7.05-5-14.22-9.9-21.59-14.45-6.1-3.76-12.21-7.51-18.51-10.89-9.65-5.19-19.35-10.3-29.25-15-8.12-3.83-16.56-7-24.89-10.38-8.68-3.51-17.38-7-26.12-10.34-4.65-1.78-9.48-3.21-14.24-4.53-7.75-2.15-15.45-4.54-23.19-6.71-14.89-4.16-30.12-6.51-45.19-9.65-7.46-1.55-15.2-1.87-22.83-2.49-5.83-.47-10.58-4.25-10.18-11.11.78-13.33,1.22-26.67,2.61-40,1.27-12.17,1.64-24.44,2.41-36.66C256,258,256.19,257.23,256.31,256.41Z"/><path class="cls-8" d="M782.67,644.17q0-32,0-63.94c0-5.62,0-5.55,5.47-5.52,10.17,0,20.37-.42,30.51.13,12.24.67,24.49,0,36.72,1,9.09.74,17.94,2.52,26,6.67a74.75,74.75,0,0,1,27.24,23.12c11.95,16.78,13.8,35.37,10.18,54.6-2.27,12-8.28,22.52-17.37,31.4a76.2,76.2,0,0,1-25.68,16.63,79.14,79.14,0,0,1-28.55,5.52c-20.07.25-40.13-.15-60.2,0-3.85,0-4.64-1.39-4.63-4.85.12-21.59.06-43.18.06-64.77Zm30,.11h.15c0,13.22.08,26.45-.06,39.67,0,2.82.88,3.58,3.56,3.53,8.91-.14,17.83-.2,26.74-.06,11,.17,21.35-1.95,30.12-9.15,6-4.95,11.16-10.83,13.41-18.33,3.87-12.82,3.93-25.5-3.17-37.62C876.94,611.2,867.62,604.1,855,602s-25.58-.43-38.36-1c-3.22-.14-4,1-3.94,4C812.8,618.1,812.71,631.19,812.71,644.28Z"/><path class="cls-9" d="M684.71,572.64c8.59-.68,19,1.81,28.87,5.93a74.32,74.32,0,0,1,32,24.9c13.3,18.18,16,38.33,10.87,59.61-2.42,10-7.75,18.89-14.67,26.86-5.37,6.19-11.79,10.88-18.31,15.53a44.48,44.48,0,0,1-9.09,4.63,82.72,82.72,0,0,1-52.76,3.73c-17-4.4-31.35-13.68-41.91-28-12.76-17.27-16.62-36.75-11.81-57.46,3.29-14.16,11.07-26,22-35.89,10.54-9.53,22.8-15.12,36.28-18.45C671.47,572.76,677,572.65,684.71,572.64ZM682.08,689.8c25.19.37,45.95-20.33,45.87-45.17C727.87,619,707.52,599,682.83,599c-25.89,0-45.75,19.81-45.77,45.6A45.12,45.12,0,0,0,682.08,689.8Z"/><path class="cls-10" d="M224.13,716.46a68.55,68.55,0,0,1-19.46-2A78.09,78.09,0,0,1,164.77,690a65.74,65.74,0,0,1-11.05-18.15c-4.18-10.14-6.9-20.46-5.79-31.43,1.41-14,5.92-26.68,14.7-38a76.09,76.09,0,0,1,33.93-24.85,76.91,76.91,0,0,1,44.65-3.15,78.32,78.32,0,0,1,31.09,14.45c8.07,6.23,14.23,13.87,19.56,22.3a51,51,0,0,1,4.31,9.34,66.84,66.84,0,0,1-.1,48.53,72.5,72.5,0,0,1-24.8,32.47,78.28,78.28,0,0,1-19.14,10.16C243,715.15,233.71,716.32,224.13,716.46Zm-44.45-72.38c-1,25.29,20.66,45.7,44.67,46,23.56.28,45.17-20.2,45-45.87-.2-25.25-21.22-45.63-45.4-45.55C200.6,598.72,178.92,618.8,179.68,644.08Z"/><path class="cls-10" d="M125.62,644.3v64c0,5.62,0,5.62-5.42,5.62-6.56,0-13.12-.2-19.66.08-3.92.17-5.11-1.34-5.09-5,.08-16-.13-32.06.06-48.09,0-3.72-1.21-4.91-4.72-4.89q-28.44.15-56.89.08c-3.07,0-3.7,1.29-3.68,4,.09,15.89,0,31.79,0,47.68,0,5.89-.28,6.16-6.1,6.16-6.7,0-13.39-.16-20.08.07C.86,714.1,0,712.84,0,709.88c.11-10,.05-20.08,0-30.11L0,580.65c0-5.42,0-5.43,5.61-5.43,6.7,0,13.39.07,20.09,0,3.28-.05,4.68,1,4.63,4.61-.17,15.19.07,30.39-.17,45.58-.06,4.13,1.25,5.12,5.21,5.08,18.12-.2,36.24-.08,54.37-.09,5.58,0,5.67-.1,5.68-5.55q0-22.17,0-44.33c0-5.25.59-5.84,5.71-5.85,6.56,0,13.11.13,19.66,0,3.63-.1,4.9,1.26,4.88,4.89C125.56,601.09,125.62,622.7,125.62,644.3Z"/><path class="cls-11" d="M944.17,644.92q0-32.4,0-64.8c0-5.55,0-5.56,5.65-5.56h93.68c5.58,0,5.58,0,5.59,5.54,0,5.15,0,10.31,0,15.47,0,5.47,0,5.48-5.67,5.48-21.47,0-42.94.11-64.4-.09-4,0-5,1.18-4.81,4.94.29,6.68.3,13.39,0,20.06-.17,3.95.91,5.26,5.06,5.21,19-.23,37.91,0,56.87-.18,3.47,0,4.59.86,4.39,4.38-.3,5.41-.25,10.87,0,16.29.14,3.2-1.08,4-4.07,3.94-19.1-.11-38.19,0-57.29-.14-3.76,0-5.13.86-5,4.85.33,7.51.31,15.05,0,22.56-.16,3.89,1.06,5,4.91,5,21.88-.16,43.77-.08,65.66-.08,6,0,6,0,6,6,0,5.58-.06,11.15,0,16.73,0,2.57-.76,3.53-3.59,3.52q-49.77-.18-99.53,0c-3.23,0-3.56-1.28-3.55-3.92C944.2,688.4,944.17,666.66,944.17,644.92Z"/><path class="cls-8" d="M533.74,573A81.27,81.27,0,0,1,577,582.26c6.06,3.11,11.41,7.46,16.5,12a2.51,2.51,0,0,1,.13,4c-5.2,5.28-10.4,10.57-15.65,15.8-1.82,1.82-3.58,1-5.1-.5-8.16-8.14-17.95-13.35-29.37-14.35-13.67-1.21-26,3.2-36.16,12.29-4.74,4.24-8,9.86-10.36,16.12A46.71,46.71,0,0,0,495,655c2.52,11.43,8.39,20.85,18.69,27.33a47.48,47.48,0,0,0,32.41,7.17A43.48,43.48,0,0,0,568.72,679c1.76-1.5,4-2.35,5.36-4.47.89-1.35,2.67-1,4,.32q7.6,7.67,15.31,15.23c1.58,1.55,2,3,.16,4.57a84.07,84.07,0,0,1-30.36,17.81c-15.18,4.94-30.38,4.78-45.55,1.44a70.63,70.63,0,0,1-22.93-9.81,74.51,74.51,0,0,1-16.54-14.31,61.33,61.33,0,0,1-9.66-15.64c-7.27-16.91-7.52-34.3-2.8-51.69a59.92,59.92,0,0,1,14.1-24.7c10.1-11,22.33-18,36.7-22.07C523.19,573.77,529.84,573.54,533.74,573Z"/><path class="cls-10" d="M390.45,716c-11,.72-22-1.74-32.35-6.23a70.77,70.77,0,0,1-28.75-22.32c-11.59-15.26-15.91-32.34-13.89-51,1.27-11.8,5-23.17,12.11-32.79a73.72,73.72,0,0,1,27.9-22.9,81.86,81.86,0,0,1,52-6.33,74.13,74.13,0,0,1,32,14.53c2.25,1.77,3.9,4.22,6.53,5.53,1.66.84,1.69,2.29.56,3.45-4.38,4.46-8.87,8.84-13.37,13.19a7.87,7.87,0,0,0-1.68,1.77c-1.69,3.13-3.88,2.65-6.11.63a66.39,66.39,0,0,0-10.59-7.84c-7.43-4.46-15.38-7.09-24-6.42-13.16,1-25.29,5.18-33.92,15.69-10.9,13.26-12.87,29-7.92,44.75,4.38,13.94,14.2,23.38,29,27.87a46.05,46.05,0,0,0,34.59-2.63,49.29,49.29,0,0,0,13.33-9.59c2.06-2,3.39-2.18,5.44,0,4.79,5,9.75,9.86,14.74,14.67,1.43,1.37,2.24,2.55.56,4.15A79.52,79.52,0,0,1,422.87,710,72,72,0,0,1,390.45,716Z"/><path class="cls-12" d="M864.77,256.38c-10-.78-17.46,4.83-25.3,9.72-3.56,2.23-5.82,6.31-10.32,7.11-.68-8.46-1-17-2.12-25.37-2.33-17.13-2.39-34.46-4.61-51.57-1.85-14.25-1.71-28.65-3.79-42.81-2.74-18.75-2.73-37.71-5.34-56.48-2-14.19-2.32-28.59-3.47-42.89-.18-2.29,1.2-2.66,2.81-2.61,7.38.21,14.78.31,22.13.89,4.38.35,8.47,4.94,9.09,9.91.89,7,1,14.2,2.11,21.2,2.92,18.28,3.32,36.84,6.24,55.12,1.23,7.69,1.18,15.57,2.24,23.29,2,14.63,2.7,29.4,4.75,44,1.79,12.71,2.48,25.49,3.92,38.2C863.58,248.19,865.22,252.15,864.77,256.38Z"/><path class="cls-13" d="M234.39,154.27c-3-1.76-6.36-1.77-9.59-2.11-8.05-.85-16.14-1.34-24.21-2,.56-11.23,1.29-22.43,2.77-33.61s1.94-22.75,3.31-34.09c.91-7.58,2.18-15.12,2.89-22.75.37-4,3.89-6.79,9.21-7.44a177.77,177.77,0,0,1,21.28-1c3,0,3.49,1.3,3.31,3.85-1.7,24-4.46,47.92-6.17,71.93C236.55,136.08,235.81,145.25,234.39,154.27Z"/><path class="cls-2" d="M345.63,299.78c-.93-.71-.76-1.73-.76-2.68V260c0-.95-.17-2,.74-2.69a4.49,4.49,0,0,1,.59,1.46q.06,19.78,0,39.57A4.44,4.44,0,0,1,345.63,299.78Z"/><path class="cls-2" d="M346,331.67c-2.75-4.36-2.8-8.84-.65-13.43Q345.62,325,346,331.67Z"/><path class="cls-14" d="M656.31,356.94c-.52,1.32-1.27,2.31-2.92,1.94C653.68,357.21,654.69,356.62,656.31,356.94Z"/><path class="cls-14" d="M648,361.16c-.51,1.35-1.25,2.36-2.93,1.9A2.2,2.2,0,0,1,648,361.16Z"/><path class="cls-15" d="M664.63,352.69c-.4,1.47-1.13,2.46-2.87,2C662,353.06,663.21,352.7,664.63,352.69Z"/><path class="cls-15" d="M659.76,355.68a1.6,1.6,0,0,1-2.18.66A1.49,1.49,0,0,1,659.76,355.68Z"/><path class="cls-14" d="M651.41,359.84a1.66,1.66,0,0,1-2.19.7A1.48,1.48,0,0,1,651.41,359.84Z"/><path class="cls-6" d="M791,186.27c.24-.34.47-.68.71-1C791.87,185.9,791.46,186.11,791,186.27Z"/><path class="cls-16" d="M442.2,152.4c-13.79,0-27.58.09-41.37,0-7.43-.07-13,3.82-18.46,8-1.32,1-1,2.83-1,4.32-.09,2.78,0,5.57-.12,8.35a2.21,2.21,0,0,1-2.31,2.43c-1.69,0-2-1.08-2-2.5,0-8.08-.1-16.16.06-24.23.07-3.17,3.82-6.5,7.14-6.33,9,.48,18,1.46,27,2.6,10.62,1.35,21.36,1.79,32.06,2.34,13.49.69,27,1.1,40.49,1.63a5.19,5.19,0,0,1,1.25,0c1.76.47,4.92-.19,4.85,1.93-.08,2.54-3.16,1.44-4.87,1.45-14.21.12-28.42.07-42.63.07Z"/></g></g></svg>