<svg xmlns="http://www.w3.org/2000/svg" viewBox="0 0 712.71 500.11"><defs><style>.cls-1{fill:#1f3060;}.cls-2{fill:#1eb7e7;}.cls-3{fill:#1c63ad;}.cls-4{fill:#0a83c5;}.cls-5{fill:#1f3160;}.cls-6{fill:#20549d;}.cls-7{fill:#058dcf;}.cls-8{fill:#21559e;}.cls-9{fill:#20b7e7;}.cls-10{fill:#89a4cb;}.cls-11{fill:#85a2c9;}.cls-12{fill:#edeff2;}</style></defs><g id="Layer_2" data-name="Layer 2"><g id="Layer_1-2" data-name="Layer 1"><path class="cls-1" d="M519.67,226.61c0,30.39-.09,60.78.09,91.17,0,4.73-1.77,7-6.1,8.44a279.43,279.43,0,0,0-34.06,14.06,317.71,317.71,0,0,0-37.37,20.91,359.89,359.89,0,0,0-31.65,22.87c-7.64,6.3-15.52,12.38-22.68,19.19-9.68,9.22-18.65,19.2-27.8,29-3.51,3.75-3.75,3.62-7.18.07-10.33-10.64-20.22-21.72-31.24-31.69a347,347,0,0,0-27.43-22.8c-8.94-6.55-18-12.93-27.51-18.72-8-4.86-16.09-9.45-24.23-14a147.62,147.62,0,0,0-18.24-8.77c-8.88-3.47-17.41-7.87-26.64-10.44-3.9-1.09-4.49-3.91-4.49-7.4q.09-41.82,0-83.64,0-50,0-100c0-5.3.23-5.46,5.42-5,8.2.65,16.47.76,24.58,1.94,22.54,3.29,45.3,2.73,67.92,4.37,38.72,2.8,77.48,2.11,116.17.89,24.34-.77,48.77-1.61,73-4.09,11.34-1.16,22.68-2.19,34-3.18,5-.44,5.22-.16,5.22,4.85q0,46,0,92ZM248.57,249c-.15,6.93.73,8.25,6.5,10.71a21.25,21.25,0,0,1,2.54,1.42c8.26,4.87,16.46,9.84,24.78,14.61,9.07,5.21,18.26,10.19,27.35,15.35,3.35,1.9,5,1.2,5.71-2.64,1.31-7.15-.45-11.33-6.7-14.81-12.71-7.08-25.5-14-38.26-21-1.14-.63-2.86-.8-2.58-2.74.24-1.71,1.77-1.94,3-2.53,3.61-1.75,7.27-3.42,10.79-5.34,8.89-4.85,17.46-10.34,26.63-14.54,5.83-2.67,8.06-6.27,7.48-12.23-.19-2,.64-4.46-1.62-5.66s-4.69.16-6.68,1.27c-11.34,6.38-22.59,12.92-33.88,19.38-6.9,4-13.69,8.13-20.8,11.68C249.21,243.7,248.1,246.1,248.57,249Zm149.09,34.56c0,1.86-.07,2.84,0,3.8.38,4.48,2.15,5.21,6,3.11,3-1.63,5.92-3.52,9-4.94,6.39-3,12.24-6.91,18.39-10.27,9.61-5.25,18.94-11.07,28.59-16.31,3.37-1.83,4.95-4.62,4.77-8.79-.16-3.71-.89-6.37-4.54-8-3.25-1.45-6.27-3.4-9.37-5.16q-12.68-7.23-25.33-14.5c-6.2-3.55-12.43-7-18.57-10.7-2.28-1.36-4.53-3.22-7.22-2s-1.6,4.12-1.84,6.36a14.91,14.91,0,0,0,0,2.5c.17,2.87.86,5.54,3.59,7,12.8,7,25.66,13.83,38.4,20.91,1.89,1.05,5.53.65,5.29,3.78-.2,2.65-3.49,3.45-5.48,4.38-12,5.61-23,13-35,18.65C400,275.38,396.31,278.6,397.66,283.54Zm-56.05,18.88c2.11-.85,5.69,1.85,7.08-2.5,2.27-7.09,4.85-14.09,7-21.21q5.87-19.38,12.33-38.54c3.79-11.29,7-22.78,10.39-34.19,1.36-4.59,1-5-3.86-5-2.89.05-6.06-.95-8.61.56-2.1,1.25-1.61,4.26-2.35,6.45-3.72,11-7.68,21.85-10.87,33-1.74,6.1-3.93,12-5.65,18.15-3.41,12.09-7.85,23.89-11.5,35.93C333.37,302.33,333.68,302.42,341.61,302.42Zm-69.91-150v.09c14.21,0,28.42,0,42.63-.07,1.71,0,4.79,1.09,4.87-1.45.07-2.12-3.09-1.46-4.85-1.93a5.22,5.22,0,0,0-1.25,0c-13.5-.53-27-.94-40.49-1.63-10.7-.55-21.45-1-32.06-2.34-9-1.14-17.94-2.12-27-2.6-3.33-.17-7.08,3.16-7.14,6.33-.17,8.07,0,16.15-.07,24.23,0,1.42.35,2.53,2.05,2.5a2.2,2.2,0,0,0,2.3-2.43c.09-2.78,0-5.57.13-8.35,0-1.49-.32-3.29,1-4.32,5.46-4.22,11-8.11,18.46-8C244.12,152.49,257.91,152.4,271.7,152.4Z"/><path class="cls-2" d="M85.8,256.41c-.54-9.94,1.9-19.63,2.38-29.49.68-13.9,1-27.86,2.59-41.67,2.26-19.52,2-39.2,4.3-58.66,2.2-18.83,2-37.8,4.16-56.59s2.42-37.75,4-56.6a34.86,34.86,0,0,1,2.35-8.73c1.62-4.58,6-4.73,9.74-4.66,11.28.2,22.62.52,33.74,2.31,12.79,2.07,25.56,4.59,38.07,7.92,13.29,3.53,26.37,7.91,39.32,12.54A304,304,0,0,1,255.64,35c11,5.28,21.79,11,32.36,17.1a379.66,379.66,0,0,1,38.16,25.1c9.5,7.12,19,14.28,27.56,22.63a7.52,7.52,0,0,0,2.23,1q-1.2,9-2.41,18c-15,0-30.07.21-45.11,0-15.45-.24-30.89-.89-46.34-1.42-8.21-.29-16.51,0-24.6-1.21-16-2.33-32.1-2.89-48.18-3.81-9.73-.55-12.34,2-13.51,11.65a75,75,0,0,0-.57,8.73q-.06,42.61,0,85.23c0,1.65.33,3.34-.4,4.94-8.95-1.07-17.57,1.16-26.2,2.89a124.73,124.73,0,0,0-27,9.18,138,138,0,0,0-25.2,14.53C93,252,90.27,255.61,85.8,256.41Z"/><path class="cls-3" d="M353.54,118.87q1.2-9,2.41-18C366.9,92,377.74,83,389.42,75.05c10.74-7.34,21.56-14.46,32.88-20.9,10.81-6.14,21.75-11.9,33-17.17,9.69-4.54,19.5-8.69,29.48-12.53,7.92-3.05,15.86-5.93,24-8.43,10.26-3.15,20.54-6,31-8.4,7.89-1.83,15.94-2.36,23.71-4.19C574.87.73,586.38,1,597.86.35c7.19-.4,9.21,1.19,10.29,8.4,2.36,15.7,3.16,31.55,4,47.39,1.1,21.83,3.46,43.57,4.72,65.4,1.23,21.25,3.49,42.44,4.35,63.72l-.72,1,.1-.07a4.45,4.45,0,0,0-3.14.72A204.61,204.61,0,0,1,587.05,202c-7.84,3.13-16.09,4.71-24.19,6.35s-16.79,1.49-25.24,1.12c-.12-9.59-.29-19.19-.35-28.79-.11-17.4-.11-34.8-.26-52.2,0-4.37-.06-8.57-3.35-12.45-2.46-2.89-5.22-3.48-8.31-3.69-9.76-.68-19.48.55-29.18,1.25-30.68,2.2-61.33,4.49-92.11,5C387.22,118.85,370.38,119.09,353.54,118.87Z"/><path class="cls-4" d="M332.26,486.37c-8.51-4.45-16.95-9-25.53-13.32-11.47-5.75-23.38-10.49-35.26-15.28-4.59-1.85-9.37-3.34-14.09-4.8-7.13-2.19-14.28-4.41-21.46-6.46-9.75-2.78-19.53-5.31-29.43-7.42-19.71-4.21-39.61-7-59.65-9.38-41.84-5-83.68-4.62-125.61-2.65-4.31.2-8.62.53-12.94.58-5.45.08-8.6-2.68-8.27-8.1.8-13,1.65-26.06,3.88-39,1.65-9.57,1.74-19.41,3-29.07,3.19-24.82,5.62-49.72,8.66-74.55,1.49-12.16,1.95-24.43,3.94-36.49,2.21-13.35,2.29-26.91,4.48-40.21,2-12,2.29-24.07,3.84-36.06.6-4.67,1.5-9.31,2.27-14,8.08.63,16.17,1.12,24.22,2,3.22.34,6.63.35,9.59,2.11,0,14.52-3,28.78-3.74,43.24-1.18,22.66-3.61,45.24-5.87,67.8-1.93,19.23-2.52,38.57-5.26,57.75-1.77,12.38-1.89,25-2.88,37.49-.28,3.59-1,7.15-1.53,10.72-.45,2.87,1,3.9,3.59,3.64,26.27-2.7,52.34.58,78.33,3.35,15.15,1.61,30.17,4.94,45,8.4a419.46,419.46,0,0,1,40.74,11.62c12.63,4.33,25.2,8.91,37.41,14.5,7.42,3.39,14.9,6.71,22.26,10.24,6.71,3.22,13.44,6.42,19.69,10.58,2.94,2,6.3,3.3,9.39,5.11a257.23,257.23,0,0,1,30.85,20.56c4.15,3.32,8.56,6.33,12.54,9.89a6.79,6.79,0,0,1-1.67,3.23A103.88,103.88,0,0,0,332.26,486.37Z"/><path class="cls-5" d="M332.26,486.37a103.88,103.88,0,0,1,10.52-14,6.79,6.79,0,0,0,1.67-3.23c3.58.44,6.41,2.87,10.18,3.29,5.85.65,10.44-1.8,14.51-5,9.2-7.16,18.64-13.92,28.28-20.47,11.94-8.11,24.5-14.93,37.33-21.47,8.07-4.12,16.35-7.71,24.45-11.7,11.9-5.87,24.67-9.48,36.84-14.66,4.64-2,9.77-3,14.68-4.41,14.79-4.25,29.68-8.12,44.83-11a573.66,573.66,0,0,1,67.37-8.63c11.27-.83,22.48-1.43,33.75-1.16a31.91,31.91,0,0,1,4.58.38c6.33,1.05,6.42,1,6-5.19-1.58-26.25-5.15-52.34-6.85-78.59-.37-5.75-1.74-11.49-1.8-17.33,4.5-.8,6.76-4.88,10.32-7.11,7.84-4.89,15.31-10.5,25.3-9.72.67,6.36,1,12.79,2.1,19.07,3,17,3.35,34.28,6.26,51.28,1.38,8.08,1.08,16.45,2.51,24.52,2.32,13,2.39,26.33,4.56,39.33,1.4,8.4,2.11,16.81,2.82,25.24.85,10-1,11.87-11.13,11.58-15.47-.45-30.92-1.35-46.38-1.76a646.78,646.78,0,0,0-82.71,2.69c-18.37,1.86-36.67,4.86-54.83,8.25a490.53,490.53,0,0,0-50.05,12.48c-11.85,3.54-23.6,7.59-35.09,12.19-12.51,5-24.93,10.42-36.9,16.59-9.84,5.07-19.38,10.85-27.74,18.35-5.74,5.15-16.57,5.24-23,.18C340.54,493.07,335.86,490.39,332.26,486.37Z"/><path class="cls-6" d="M537.62,209.51c8.45.37,17.07.53,25.24-1.12s16.35-3.22,24.19-6.35a204.61,204.61,0,0,0,30.37-15.12,4.45,4.45,0,0,1,3.14-.72c2.26,9.36,2.81,18.91,3.24,28.47,1.38,30.19,4.75,60.24,6.25,90.43.48,9.69,1.86,19.38,2.36,29.12.4,7.6-2.48,11.55-10.17,12.22a358,358,0,0,0-40.39,6.21c-14.08,2.87-28.15,5.9-41.93,10.23-6.18,1.95-12.54,3.43-18.65,5.67-10.09,3.7-20.4,6.72-30.28,11.11-5,2.21-10.15,4.26-15.29,6.23-6.54,2.52-12.77,5.88-19,9.08-7.49,3.83-15,7.73-22.28,11.88-8.13,4.6-16.47,8.83-24,14.52a137.48,137.48,0,0,1-13.93,8.89c-7.16,4.17-13.24,9.76-19.76,14.76-4.34,3.34-8.43,7-12.7,10.42a9.87,9.87,0,0,1-2.85,1c.61-3.54,3.4-5.22,5.21-7.1,10.32-10.67,20.14-21.8,31-32A303.27,303.27,0,0,1,452,376c7.42-4.46,14.85-8.86,22.48-12.93,1.69.46,2.42-.55,2.94-1.9l1.26-.62a1.65,1.65,0,0,0,2.18-.7l2-1c1.65.37,2.39-.62,2.91-1.94l1.27-.6a1.62,1.62,0,0,0,2.19-.66l2-1c1.74.44,2.47-.55,2.87-2,9.54-3.93,19.07-7.9,28.63-11.79,2.31-.93,4.75-1.56,7.07-2.46,4.73-1.83,7.85-4.86,7.81-10.38-.09-13.08-.1-26.16-.13-39.24q-.07-38.62-.14-77.25A16.08,16.08,0,0,1,537.62,209.51Z"/><path class="cls-7" d="M85.8,256.41c4.47-.8,7.23-4.42,10.56-6.87A138,138,0,0,1,121.56,235a124.73,124.73,0,0,1,27-9.18c8.63-1.73,17.25-4,26.2-2.89.88,11.44.31,22.89.31,34.33-.91.72-.73,1.74-.73,2.69q0,18.57,0,37.14c0,.95-.17,2,.75,2.68,0,6.15.56,12.32-.33,18.46-2.15,4.59-2.09,9.07.66,13.43,1.34,4,4.16,6.29,8.14,7.65,8.52,2.9,16.94,6.2,25.22,9.64a245.47,245.47,0,0,1,25.68,12.12c13,7.23,25.84,14.64,38.15,23a392.48,392.48,0,0,1,44.72,35.75c10.05,9.28,19.86,19,28.08,30.11,1.22,1.65,3.92,2.28,3.65,5.73-4.59-3.4-8.9-6.43-13-9.67-6.48-5.09-12.91-10.21-19.62-15-7.05-5-14.22-9.9-21.6-14.45-6.09-3.76-12.2-7.51-18.51-10.89-9.64-5.19-19.34-10.3-29.24-15-8.13-3.83-16.56-7-24.89-10.38-8.68-3.51-17.38-7-26.13-10.34-4.65-1.78-9.48-3.21-14.23-4.53-7.75-2.15-15.46-4.54-23.19-6.71-14.9-4.16-30.12-6.51-45.19-9.65-7.47-1.55-15.2-1.87-22.84-2.49-5.83-.47-10.57-4.25-10.17-11.11.77-13.33,1.22-26.67,2.61-40,1.26-12.17,1.63-24.44,2.41-36.66C85.52,258,85.69,257.23,85.8,256.41Z"/><path class="cls-8" d="M694.27,256.38c-10-.78-17.46,4.83-25.3,9.72-3.56,2.23-5.82,6.31-10.32,7.11-.68-8.46-1-17-2.13-25.37-2.33-17.13-2.39-34.46-4.61-51.57-1.85-14.25-1.7-28.65-3.78-42.81-2.75-18.75-2.74-37.71-5.34-56.48-2-14.19-2.32-28.59-3.47-42.89-.18-2.29,1.19-2.66,2.8-2.61,7.39.21,14.78.31,22.14.89,4.37.35,8.47,4.94,9.09,9.91.88,7,1,14.2,2.11,21.2,2.91,18.28,3.31,36.84,6.24,55.12,1.23,7.69,1.18,15.57,2.23,23.29,2,14.63,2.7,29.4,4.75,44,1.79,12.71,2.48,25.49,3.93,38.2C693.07,248.19,694.72,252.15,694.27,256.38Z"/><path class="cls-9" d="M63.89,154.27c-3-1.76-6.37-1.77-9.59-2.11-8-.85-16.14-1.34-24.22-2,.56-11.23,1.29-22.43,2.78-33.61s1.93-22.75,3.3-34.09c.92-7.58,2.19-15.12,2.89-22.75.37-4,3.89-6.79,9.21-7.44a177.87,177.87,0,0,1,21.28-1c3,0,3.5,1.3,3.32,3.85-1.7,24-4.47,47.92-6.17,71.93C66.05,136.08,65.31,145.25,63.89,154.27Z"/><path class="cls-2" d="M175.12,299.78c-.92-.71-.75-1.73-.75-2.68q0-18.57,0-37.14c0-.95-.18-2,.73-2.69a4.31,4.31,0,0,1,.6,1.46q0,19.78,0,39.57A4.47,4.47,0,0,1,175.12,299.78Z"/><path class="cls-2" d="M175.45,331.67c-2.75-4.36-2.81-8.84-.66-13.43Z"/><path class="cls-10" d="M485.8,356.94c-.52,1.32-1.26,2.31-2.91,1.94C483.18,357.21,484.18,356.62,485.8,356.94Z"/><path class="cls-10" d="M477.46,361.16c-.52,1.35-1.25,2.36-2.94,1.9A2.21,2.21,0,0,1,477.46,361.16Z"/><path class="cls-11" d="M494.13,352.69c-.4,1.47-1.13,2.46-2.87,2C491.52,353.06,492.7,352.7,494.13,352.69Z"/><path class="cls-11" d="M489.26,355.68a1.62,1.62,0,0,1-2.19.66A1.5,1.5,0,0,1,489.26,355.68Z"/><path class="cls-10" d="M480.9,359.84a1.65,1.65,0,0,1-2.18.7A1.47,1.47,0,0,1,480.9,359.84Z"/><path class="cls-6" d="M620.46,186.27l.72-1C621.37,185.9,621,186.11,620.46,186.27Z"/><path class="cls-12" d="M271.7,152.4c-13.79,0-27.58.09-41.37,0-7.43-.07-13,3.82-18.46,8-1.33,1-1,2.83-1,4.32-.1,2.78,0,5.57-.13,8.35a2.2,2.2,0,0,1-2.3,2.43c-1.7,0-2.05-1.08-2.05-2.5,0-8.08-.1-16.16.07-24.23.06-3.17,3.81-6.5,7.14-6.33,9,.48,18,1.46,27,2.6,10.61,1.35,21.36,1.79,32.06,2.34,13.49.69,27,1.1,40.49,1.63a5.22,5.22,0,0,1,1.25,0c1.76.47,4.92-.19,4.85,1.93-.08,2.54-3.16,1.44-4.87,1.45-14.21.12-28.42.07-42.63.07Z"/></g></g></svg>