<svg xmlns="http://www.w3.org/2000/svg" viewBox="0 0 1050.79 144.04"><defs><style>.cls-1{fill:#182546;}.cls-2{fill:#172545;}.cls-3{fill:#078dcf;}.cls-4{fill:#182646;}</style></defs><g id="Layer_2" data-name="Layer 2"><g id="Layer_1-2" data-name="Layer 1"><path class="cls-1" d="M782.67,71.69q0-32,0-63.94c0-5.61,0-5.54,5.47-5.52,10.17.06,20.37-.42,30.51.13,12.24.67,24.49,0,36.72,1,9.09.74,17.94,2.53,26,6.67A74.78,74.78,0,0,1,908.58,33.2c11.95,16.78,13.8,35.36,10.18,54.59-2.27,12-8.28,22.52-17.37,31.4a76.05,76.05,0,0,1-25.68,16.63,79.36,79.36,0,0,1-28.55,5.53c-20.07.24-40.13-.16-60.2,0-3.85,0-4.64-1.39-4.63-4.84.12-21.59.06-43.19.06-64.78Zm30,.11h.15c0,13.23.08,26.45-.06,39.67,0,2.82.88,3.58,3.56,3.54,8.91-.15,17.83-.21,26.74-.07,11,.18,21.35-1.94,30.12-9.14,6-5,11.16-10.84,13.41-18.33,3.87-12.83,3.93-25.51-3.17-37.63C876.94,38.72,867.62,31.62,855,29.51s-25.58-.43-38.36-1c-3.22-.14-4,1-3.94,4C812.8,45.63,812.71,58.71,812.71,71.8Z"/><path class="cls-2" d="M684.71.16c8.59-.68,19,1.82,28.87,5.93a74.39,74.39,0,0,1,32,24.9c13.3,18.18,16,38.33,10.87,59.62-2.42,10-7.75,18.88-14.67,26.85-5.37,6.19-11.79,10.89-18.31,15.54a44.48,44.48,0,0,1-9.09,4.63,82.72,82.72,0,0,1-52.76,3.72,74,74,0,0,1-41.91-28c-12.76-17.26-16.62-36.75-11.81-57.46,3.29-14.15,11.07-26,22-35.89,10.54-9.53,22.8-15.11,36.28-18.44C671.47.29,677,.17,684.71.16Zm-2.63,117.17C707.27,117.69,728,97,728,72.15c-.08-25.68-20.43-45.63-45.12-45.65-25.89,0-45.75,19.81-45.77,45.6A45.13,45.13,0,0,0,682.08,117.33Z"/><path class="cls-3" d="M224.13,144a68.9,68.9,0,0,1-19.46-2A80.64,80.64,0,0,1,181,131.63a80.09,80.09,0,0,1-16.27-14.16,65.59,65.59,0,0,1-11.05-18.15c-4.18-10.14-6.9-20.45-5.79-31.43,1.41-14,5.92-26.68,14.7-38A76.14,76.14,0,0,1,196.56,5.09a76.91,76.91,0,0,1,44.65-3.16A78.46,78.46,0,0,1,272.3,16.38c8.07,6.24,14.23,13.87,19.56,22.31A50.38,50.38,0,0,1,296.17,48a66.84,66.84,0,0,1-.1,48.53A72.55,72.55,0,0,1,271.27,129a78.62,78.62,0,0,1-19.14,10.16C243,142.68,233.71,143.84,224.13,144ZM179.68,71.61c-1,25.28,20.66,45.69,44.67,46,23.56.28,45.17-20.2,45-45.87-.2-25.24-21.22-45.63-45.4-45.55C200.6,26.24,178.92,46.32,179.68,71.61Z"/><path class="cls-3" d="M125.62,71.83v64c0,5.62,0,5.63-5.42,5.63-6.56,0-13.12-.21-19.66.08-3.92.17-5.11-1.35-5.09-5.05.08-16-.13-32.06.06-48.09,0-3.73-1.21-4.92-4.72-4.9q-28.44.15-56.89.08c-3.07,0-3.7,1.29-3.68,4,.09,15.89,0,31.78,0,47.67,0,5.9-.28,6.17-6.1,6.17-6.7,0-13.39-.16-20.08.07C.86,141.62,0,140.37,0,137.4c.11-10,.05-20.07,0-30.11L0,8.18C0,2.75,0,2.75,5.61,2.74c6.7,0,13.39.07,20.09,0,3.28,0,4.68,1,4.63,4.62-.17,15.19.07,30.39-.17,45.58C30.1,57,31.41,58,35.37,58c18.12-.2,36.24-.08,54.37-.09,5.58,0,5.67-.1,5.68-5.55q0-22.17,0-44.33c0-5.24.59-5.83,5.71-5.84,6.56,0,13.11.12,19.66-.06,3.63-.1,4.9,1.27,4.88,4.9C125.56,28.61,125.62,50.22,125.62,71.83Z"/><path class="cls-4" d="M944.17,72.44q0-32.4,0-64.8c0-5.54,0-5.56,5.65-5.56h93.68c5.58,0,5.58,0,5.59,5.54,0,5.16,0,10.32,0,15.47,0,5.48,0,5.49-5.67,5.49-21.47,0-42.94.1-64.4-.1-4,0-5,1.18-4.81,4.95.29,6.67.3,13.38,0,20.06-.17,3.94.91,5.25,5.06,5.2,19-.22,37.91,0,56.87-.18,3.47,0,4.59.86,4.39,4.38-.3,5.42-.25,10.87,0,16.3.14,3.2-1.08,4-4.07,3.93-19.1-.11-38.19,0-57.29-.13-3.76,0-5.13.86-5,4.84.33,7.51.31,15.06,0,22.57-.16,3.89,1.06,5,4.91,5,21.88-.16,43.77-.07,65.66-.07,6,0,6,0,6,6,0,5.57-.06,11.15,0,16.72,0,2.58-.76,3.53-3.59,3.52q-49.77-.17-99.53,0c-3.23,0-3.56-1.28-3.55-3.93C944.2,115.92,944.17,94.18,944.17,72.44Z"/><path class="cls-1" d="M533.74.52A81.17,81.17,0,0,1,577,9.79c6.06,3.1,11.41,7.45,16.5,12a2.5,2.5,0,0,1,.13,4c-5.2,5.28-10.4,10.57-15.65,15.81-1.82,1.81-3.58,1-5.1-.51-8.16-8.14-17.95-13.34-29.37-14.35-13.67-1.2-26,3.2-36.16,12.29-4.74,4.24-8,9.86-10.36,16.12a46.71,46.71,0,0,0-2,27.36c2.52,11.44,8.39,20.86,18.69,27.34a47.48,47.48,0,0,0,32.41,7.17,43.63,43.63,0,0,0,22.58-10.54c1.76-1.5,4-2.36,5.36-4.47.89-1.36,2.67-1,4,.31q7.6,7.66,15.31,15.23c1.58,1.55,2,3,.16,4.57A83.93,83.93,0,0,1,563.18,140c-15.18,4.95-30.38,4.78-45.55,1.44a70.83,70.83,0,0,1-22.93-9.8,74.55,74.55,0,0,1-16.54-14.32,61.33,61.33,0,0,1-9.66-15.64c-7.27-16.9-7.52-34.3-2.8-51.68a59.8,59.8,0,0,1,14.1-24.7c10.1-11,22.33-18,36.7-22.07C523.19,1.29,529.84,1.06,533.74.52Z"/><path class="cls-3" d="M390.45,143.49c-11,.72-22-1.74-32.35-6.23A70.75,70.75,0,0,1,329.35,115c-11.59-15.27-15.91-32.34-13.89-51,1.27-11.81,5-23.17,12.11-32.79a73.75,73.75,0,0,1,27.9-22.91,81.79,81.79,0,0,1,52-6.32,74.11,74.11,0,0,1,32,14.52c2.25,1.78,3.9,4.22,6.53,5.54a2,2,0,0,1,.56,3.44c-4.38,4.47-8.87,8.84-13.37,13.19a7.71,7.71,0,0,0-1.68,1.78c-1.69,3.13-3.88,2.64-6.11.62a66.34,66.34,0,0,0-10.59-7.83c-7.43-4.46-15.38-7.09-24-6.43-13.16,1-25.29,5.18-33.92,15.69C346,55.71,344,71.44,349,87.19c4.38,14,14.2,23.38,29,27.88a46.15,46.15,0,0,0,34.59-2.63,49.51,49.51,0,0,0,13.33-9.59c2.06-2,3.39-2.19,5.44,0,4.79,5,9.75,9.86,14.74,14.67,1.43,1.37,2.24,2.56.56,4.15a79.74,79.74,0,0,1-23.78,15.87A72,72,0,0,1,390.45,143.49Z"/></g></g></svg>